# xmcd
#
# Track frame offsets: 
#        150
#        16760
#        38579
#
# Disc length: 767 seconds
#
# Revision: 0
# Processed by: cddbd v1.5.1PL2 Copyright (c) Steve Scherf et al.
# Submitted via: ExactAudioCopy v0.95b2
#
DISCID=1302fd03
DTITLE=Stacie Orrico - I'M NOT MISSING YOU
DYEAR=2006
DGENRE=R&B
TTITLE0=I'M NOT MISSING YOU (RADIO EDIT)
TTITLE1=TANTRUM
TTITLE2=I'M NOT MISSING YOU (FULL PHATT UNDERGROUND REMIX)
EXTD=
EXTT0=
EXTT1=
EXTT2=
PLAYORDER=
